<svg xmlns="http://www.w3.org/2000/svg" width="259" height="42" viewBox="0 0 259 42" role="img" aria-labelledby="profile-intro-title profile-intro-desc">
  <title id="profile-intro-title">Hi, I'm @m1ng-wym,</title>
  <desc id="profile-intro-desc">Static Tiny5 intro text for the profile sentence.</desc>
  <g id="tiny5-profile-intro" aria-label="Hi, I'm @m1ng-wym," data-font="Tiny5">
  <path d="M3.6 34L0 34L0 16L3.6 16L3.6 23.2L10.8 23.2L10.8 16L14.4 16L14.4 34L10.8 34L10.8 26.8L3.6 26.8Z" fill="#2C365D"/>
  <path d="M28.8 34L28.8 30.4L32.4 30.4L32.4 34ZM25.2 37.6L25.2 34L28.8 34L28.8 37.6Z" fill="#2C365D"/>
  <path d="M46.8 34L43.2 34L43.2 16L46.8 16Z" fill="#2C365D"/>
  <path d="M54 23.2L50.4 23.2L50.4 16L54 16Z" fill="#2C365D"/>
  <path d="M61.2 34L57.6 34L57.6 19.6L72 19.6L72 23.2L68.4 23.2L68.4 34L64.8 34L64.8 23.2L61.2 23.2ZM75.6 34L72 34L72 23.2L75.6 23.2Z" fill="#2C365D"/>
  <path d="M90 19.6L90 16L97.2 16L97.2 19.6ZM90 30.4L86.4 30.4L86.4 19.6L90 19.6ZM97.2 23.2L97.2 19.6L100.8 19.6L100.8 26.8L93.6 26.8L93.6 23.2ZM90 34L90 30.4L97.2 30.4L97.2 34Z" fill="#2C365D"/>
  <path d="M108 34L104.4 34L104.4 19.6L118.8 19.6L118.8 23.2L115.2 23.2L115.2 34L111.6 34L111.6 23.2L108 23.2ZM122.4 34L118.8 34L118.8 23.2L122.4 23.2Z" fill="#2C365D"/>
  <path d="M133.2 34L129.6 34L129.6 23.2L126 23.2L126 19.6L129.6 19.6L129.6 16L133.2 16Z" fill="#2C365D"/>
  <path d="M144 34L140.4 34L140.4 19.6L147.6 19.6L147.6 23.2L144 23.2ZM151.2 34L147.6 34L147.6 23.2L151.2 23.2Z" fill="#2C365D"/>
  <path d="M154.8 34L158.4 34L158.4 30.4L154.8 30.4L154.8 23.2L158.4 23.2L158.4 30.4L162 30.4L162 23.2L158.4 23.2L158.4 19.6L165.6 19.6L165.6 34L162 34L162 37.6L154.8 37.6Z" fill="#2C365D"/>
  <path d="M169.2 26.8L169.2 23.2L180 23.2L180 26.8Z" fill="#2C365D"/>
  <path d="M187.2 26.8L183.6 26.8L183.6 19.6L187.2 19.6ZM190.8 26.8L190.8 19.6L194.4 19.6L194.4 26.8ZM198 26.8L198 19.6L201.6 19.6L201.6 26.8ZM190.8 34L187.2 34L187.2 26.8L190.8 26.8ZM198 34L194.4 34L194.4 26.8L198 26.8Z" fill="#2C365D"/>
  <path d="M208.8 30.4L205.2 30.4L205.2 19.6L208.8 19.6ZM216 30.4L212.4 30.4L212.4 19.6L216 19.6ZM212.4 30.4L212.4 34L208.8 34L208.8 30.4ZM205.2 37.6L205.2 34L208.8 34L208.8 37.6Z" fill="#2C365D"/>
  <path d="M223.2 34L219.6 34L219.6 19.6L234 19.6L234 23.2L230.4 23.2L230.4 34L226.8 34L226.8 23.2L223.2 23.2ZM237.6 34L234 34L234 23.2L237.6 23.2Z" fill="#2C365D"/>
  <path d="M244.8 34L244.8 30.4L248.4 30.4L248.4 34ZM241.2 37.6L241.2 34L244.8 34L244.8 37.6Z" fill="#2C365D"/>
  </g>
</svg>
